# xmcd
#
# Track frame offsets:
#	177
#	15532
#	40335
#	58132
#	80137
#	91302
#	109500
#	128995
#	152142
#
# Disc length: 2339 seconds
#
# Revision: 0
# Processed by: cddbd v1.5.1PL0 Copyright (c) Steve Scherf et al.
# Submitted via: dBpowerAMP V4.0
#
DISCID=70092109
DTITLE=Marc Lelangue - Glandeur Nature
DYEAR=1900
DGENRE=Blues
TTITLE0=Vraiment complique
TTITLE1=Fille de nuit
TTITLE2=Et partir loin
TTITLE3=Perdu l habitude
TTITLE4=J aime la main qui me nourrit
TTITLE5=Witloof Willy
TTITLE6=Trois quarts d heure
TTITLE7=Pas la meme chose
TTITLE8=Lola
EXTD=
EXTT0=
EXTT1=
EXTT2=
EXTT3=
EXTT4=
EXTT5=
EXTT6=
EXTT7=
EXTT8=
PLAYORDER=
